<mxfile host="Electron" agent="Mozilla/5.0 (Windows NT 10.0; Win64; x64) AppleWebKit/537.36 (KHTML, like Gecko) draw.io/24.7.8 Chrome/128.0.6613.36 Electron/32.0.1 Safari/537.36" version="24.7.8">
  <diagram name="Page-1" id="vR_EJsEUsXFRfIs9Qibx">
    <mxGraphModel dx="955" dy="572" grid="1" gridSize="10" guides="1" tooltips="1" connect="1" arrows="1" fold="1" page="1" pageScale="1" pageWidth="850" pageHeight="1100" math="0" shadow="0">
      <root>
        <mxCell id="0" />
        <mxCell id="1" parent="0" />
        <mxCell id="_sD9L1d-fXAz2cn8ZB5m-3" value="" style="rounded=0;whiteSpace=wrap;html=1;" vertex="1" parent="1">
          <mxGeometry x="130" y="70" width="560" height="800" as="geometry" />
        </mxCell>
        <mxCell id="_sD9L1d-fXAz2cn8ZB5m-4" value="Teacher" style="shape=umlActor;verticalLabelPosition=bottom;verticalAlign=top;html=1;outlineConnect=0;" vertex="1" parent="1">
          <mxGeometry x="30" y="245" width="30" height="60" as="geometry" />
        </mxCell>
        <mxCell id="_sD9L1d-fXAz2cn8ZB5m-5" value="Student" style="shape=umlActor;verticalLabelPosition=bottom;verticalAlign=top;html=1;outlineConnect=0;" vertex="1" parent="1">
          <mxGeometry x="780" y="407.5" width="30" height="60" as="geometry" />
        </mxCell>
        <mxCell id="_sD9L1d-fXAz2cn8ZB5m-6" value="Report&amp;nbsp;&lt;div&gt;Generation&amp;nbsp;&lt;div&gt;Server&lt;/div&gt;&lt;/div&gt;" style="shape=umlActor;verticalLabelPosition=bottom;verticalAlign=top;html=1;outlineConnect=0;" vertex="1" parent="1">
          <mxGeometry x="40" y="520" width="30" height="60" as="geometry" />
        </mxCell>
        <mxCell id="_sD9L1d-fXAz2cn8ZB5m-7" value="Validation&amp;nbsp;&lt;div&gt;Server&lt;/div&gt;" style="shape=umlActor;verticalLabelPosition=bottom;verticalAlign=top;html=1;outlineConnect=0;" vertex="1" parent="1">
          <mxGeometry x="40" y="650" width="30" height="60" as="geometry" />
        </mxCell>
        <mxCell id="_sD9L1d-fXAz2cn8ZB5m-8" value="WebSocket&amp;nbsp;&lt;div&gt;Server&lt;/div&gt;" style="shape=umlActor;verticalLabelPosition=bottom;verticalAlign=top;html=1;outlineConnect=0;" vertex="1" parent="1">
          <mxGeometry x="780" y="175" width="30" height="60" as="geometry" />
        </mxCell>
        <mxCell id="_sD9L1d-fXAz2cn8ZB5m-11" value="Data Inertion&lt;div&gt;Server&lt;/div&gt;" style="shape=umlActor;verticalLabelPosition=bottom;verticalAlign=top;html=1;outlineConnect=0;" vertex="1" parent="1">
          <mxGeometry x="780" y="770" width="30" height="60" as="geometry" />
        </mxCell>
        <mxCell id="_sD9L1d-fXAz2cn8ZB5m-14" value="Teacher&amp;nbsp;&lt;div&gt;Connection&lt;/div&gt;" style="ellipse;whiteSpace=wrap;html=1;" vertex="1" parent="1">
          <mxGeometry x="230" y="100" width="110" height="75" as="geometry" />
        </mxCell>
        <mxCell id="_sD9L1d-fXAz2cn8ZB5m-15" value="Generate Attendance&amp;nbsp;&lt;div&gt;Report&lt;/div&gt;" style="ellipse;whiteSpace=wrap;html=1;" vertex="1" parent="1">
          <mxGeometry x="160" y="370" width="110" height="75" as="geometry" />
        </mxCell>
        <mxCell id="_sD9L1d-fXAz2cn8ZB5m-16" value="Create Session" style="ellipse;whiteSpace=wrap;html=1;" vertex="1" parent="1">
          <mxGeometry x="510" y="100" width="110" height="75" as="geometry" />
        </mxCell>
        <mxCell id="_sD9L1d-fXAz2cn8ZB5m-17" value="Start Attendance" style="ellipse;whiteSpace=wrap;html=1;" vertex="1" parent="1">
          <mxGeometry x="230" y="187.5" width="110" height="75" as="geometry" />
        </mxCell>
        <mxCell id="_sD9L1d-fXAz2cn8ZB5m-18" value="Stop Attendance" style="ellipse;whiteSpace=wrap;html=1;" vertex="1" parent="1">
          <mxGeometry x="230" y="280" width="110" height="75" as="geometry" />
        </mxCell>
        <mxCell id="_sD9L1d-fXAz2cn8ZB5m-22" value="Geolocation&amp;nbsp;&lt;div&gt;Check&lt;/div&gt;" style="ellipse;whiteSpace=wrap;html=1;" vertex="1" parent="1">
          <mxGeometry x="500" y="480" width="110" height="75" as="geometry" />
        </mxCell>
        <mxCell id="_sD9L1d-fXAz2cn8ZB5m-23" value="Biometric Authentication" style="ellipse;whiteSpace=wrap;html=1;" vertex="1" parent="1">
          <mxGeometry x="500" y="392.5" width="110" height="75" as="geometry" />
        </mxCell>
        <mxCell id="_sD9L1d-fXAz2cn8ZB5m-24" value="Student&amp;nbsp;&lt;div&gt;Connection&lt;/div&gt;" style="ellipse;whiteSpace=wrap;html=1;" vertex="1" parent="1">
          <mxGeometry x="505" y="310" width="110" height="75" as="geometry" />
        </mxCell>
        <mxCell id="_sD9L1d-fXAz2cn8ZB5m-25" value="Map Student to Teacher Session" style="ellipse;whiteSpace=wrap;html=1;" vertex="1" parent="1">
          <mxGeometry x="510" y="187.5" width="110" height="75" as="geometry" />
        </mxCell>
        <mxCell id="_sD9L1d-fXAz2cn8ZB5m-26" value="Fetches required student data from&lt;div&gt;database&lt;/div&gt;" style="ellipse;whiteSpace=wrap;html=1;" vertex="1" parent="1">
          <mxGeometry x="270" y="505" width="110" height="75" as="geometry" />
        </mxCell>
        <mxCell id="_sD9L1d-fXAz2cn8ZB5m-27" value="Inserts Valid&lt;div&gt;student data in dtabase&lt;/div&gt;" style="ellipse;whiteSpace=wrap;html=1;" vertex="1" parent="1">
          <mxGeometry x="230" y="635" width="110" height="75" as="geometry" />
        </mxCell>
        <mxCell id="_sD9L1d-fXAz2cn8ZB5m-28" value="Manages and Updates Studnent data" style="ellipse;whiteSpace=wrap;html=1;" vertex="1" parent="1">
          <mxGeometry x="230" y="752.5" width="110" height="75" as="geometry" />
        </mxCell>
        <mxCell id="_sD9L1d-fXAz2cn8ZB5m-34" value="" style="endArrow=none;html=1;rounded=0;exitX=1;exitY=0.3333333333333333;exitDx=0;exitDy=0;exitPerimeter=0;entryX=0;entryY=0.5;entryDx=0;entryDy=0;" edge="1" parent="1" source="_sD9L1d-fXAz2cn8ZB5m-4" target="_sD9L1d-fXAz2cn8ZB5m-14">
          <mxGeometry width="50" height="50" relative="1" as="geometry">
            <mxPoint x="410" y="450" as="sourcePoint" />
            <mxPoint x="460" y="400" as="targetPoint" />
          </mxGeometry>
        </mxCell>
        <mxCell id="_sD9L1d-fXAz2cn8ZB5m-35" value="" style="endArrow=none;html=1;rounded=0;entryX=0;entryY=0.5;entryDx=0;entryDy=0;exitX=1;exitY=0.3333333333333333;exitDx=0;exitDy=0;exitPerimeter=0;" edge="1" parent="1" source="_sD9L1d-fXAz2cn8ZB5m-4" target="_sD9L1d-fXAz2cn8ZB5m-17">
          <mxGeometry width="50" height="50" relative="1" as="geometry">
            <mxPoint x="110" y="400" as="sourcePoint" />
            <mxPoint x="460" y="400" as="targetPoint" />
          </mxGeometry>
        </mxCell>
        <mxCell id="_sD9L1d-fXAz2cn8ZB5m-36" value="" style="endArrow=none;html=1;rounded=0;exitX=1;exitY=0.3333333333333333;exitDx=0;exitDy=0;exitPerimeter=0;entryX=0;entryY=0.5;entryDx=0;entryDy=0;" edge="1" parent="1" source="_sD9L1d-fXAz2cn8ZB5m-4" target="_sD9L1d-fXAz2cn8ZB5m-18">
          <mxGeometry width="50" height="50" relative="1" as="geometry">
            <mxPoint x="410" y="450" as="sourcePoint" />
            <mxPoint x="460" y="400" as="targetPoint" />
          </mxGeometry>
        </mxCell>
        <mxCell id="_sD9L1d-fXAz2cn8ZB5m-37" value="" style="endArrow=none;html=1;rounded=0;exitX=1;exitY=0.3333333333333333;exitDx=0;exitDy=0;exitPerimeter=0;entryX=0;entryY=0.5;entryDx=0;entryDy=0;" edge="1" parent="1" source="_sD9L1d-fXAz2cn8ZB5m-4" target="_sD9L1d-fXAz2cn8ZB5m-15">
          <mxGeometry width="50" height="50" relative="1" as="geometry">
            <mxPoint x="410" y="450" as="sourcePoint" />
            <mxPoint x="460" y="400" as="targetPoint" />
          </mxGeometry>
        </mxCell>
        <mxCell id="_sD9L1d-fXAz2cn8ZB5m-41" value="" style="endArrow=none;html=1;rounded=0;entryX=0;entryY=0.3333333333333333;entryDx=0;entryDy=0;entryPerimeter=0;exitX=1;exitY=0.5;exitDx=0;exitDy=0;" edge="1" parent="1" source="_sD9L1d-fXAz2cn8ZB5m-16" target="_sD9L1d-fXAz2cn8ZB5m-8">
          <mxGeometry width="50" height="50" relative="1" as="geometry">
            <mxPoint x="500" y="460" as="sourcePoint" />
            <mxPoint x="550" y="410" as="targetPoint" />
          </mxGeometry>
        </mxCell>
        <mxCell id="_sD9L1d-fXAz2cn8ZB5m-46" value="&amp;lt;&amp;lt;include&amp;gt;&amp;gt;" style="text;html=1;align=center;verticalAlign=middle;whiteSpace=wrap;rounded=0;" vertex="1" parent="1">
          <mxGeometry x="390" y="110" width="60" height="30" as="geometry" />
        </mxCell>
        <mxCell id="_sD9L1d-fXAz2cn8ZB5m-47" value="" style="endArrow=block;dashed=1;endFill=0;endSize=12;html=1;rounded=0;exitX=0.5;exitY=0;exitDx=0;exitDy=0;entryX=0.459;entryY=0.994;entryDx=0;entryDy=0;entryPerimeter=0;" edge="1" parent="1" source="_sD9L1d-fXAz2cn8ZB5m-24" target="_sD9L1d-fXAz2cn8ZB5m-25">
          <mxGeometry width="160" relative="1" as="geometry">
            <mxPoint x="420" y="470" as="sourcePoint" />
            <mxPoint x="580" y="470" as="targetPoint" />
          </mxGeometry>
        </mxCell>
        <mxCell id="_sD9L1d-fXAz2cn8ZB5m-48" value="" style="endArrow=block;dashed=1;endFill=0;endSize=12;html=1;rounded=0;exitX=1;exitY=0.5;exitDx=0;exitDy=0;entryX=0;entryY=0.5;entryDx=0;entryDy=0;" edge="1" parent="1" source="_sD9L1d-fXAz2cn8ZB5m-17" target="_sD9L1d-fXAz2cn8ZB5m-23">
          <mxGeometry width="160" relative="1" as="geometry">
            <mxPoint x="500" y="390" as="sourcePoint" />
            <mxPoint x="400" y="390" as="targetPoint" />
          </mxGeometry>
        </mxCell>
        <mxCell id="_sD9L1d-fXAz2cn8ZB5m-49" value="" style="endArrow=block;dashed=1;endFill=0;endSize=12;html=1;rounded=0;exitX=1;exitY=0.5;exitDx=0;exitDy=0;entryX=0;entryY=0.5;entryDx=0;entryDy=0;" edge="1" parent="1" source="_sD9L1d-fXAz2cn8ZB5m-17" target="_sD9L1d-fXAz2cn8ZB5m-22">
          <mxGeometry width="160" relative="1" as="geometry">
            <mxPoint x="620" y="308" as="sourcePoint" />
            <mxPoint x="520" y="308" as="targetPoint" />
          </mxGeometry>
        </mxCell>
        <mxCell id="_sD9L1d-fXAz2cn8ZB5m-50" value="&amp;lt;&amp;lt;include&amp;gt;&amp;gt;" style="text;html=1;align=center;verticalAlign=middle;whiteSpace=wrap;rounded=0;" vertex="1" parent="1">
          <mxGeometry x="425" y="310" width="60" height="30" as="geometry" />
        </mxCell>
        <mxCell id="_sD9L1d-fXAz2cn8ZB5m-51" value="&amp;lt;&amp;lt;include&amp;gt;&amp;gt;" style="text;html=1;align=center;verticalAlign=middle;whiteSpace=wrap;rounded=0;" vertex="1" parent="1">
          <mxGeometry x="360" y="362.5" width="60" height="30" as="geometry" />
        </mxCell>
        <mxCell id="_sD9L1d-fXAz2cn8ZB5m-52" value="" style="endArrow=none;html=1;rounded=0;entryX=0;entryY=0.3333333333333333;entryDx=0;entryDy=0;entryPerimeter=0;exitX=1;exitY=0.5;exitDx=0;exitDy=0;" edge="1" parent="1" source="_sD9L1d-fXAz2cn8ZB5m-24" target="_sD9L1d-fXAz2cn8ZB5m-5">
          <mxGeometry width="50" height="50" relative="1" as="geometry">
            <mxPoint x="400" y="460" as="sourcePoint" />
            <mxPoint x="450" y="410" as="targetPoint" />
          </mxGeometry>
        </mxCell>
        <mxCell id="_sD9L1d-fXAz2cn8ZB5m-53" value="" style="endArrow=none;html=1;rounded=0;exitX=1;exitY=0.5;exitDx=0;exitDy=0;entryX=0;entryY=0.3333333333333333;entryDx=0;entryDy=0;entryPerimeter=0;" edge="1" parent="1" source="_sD9L1d-fXAz2cn8ZB5m-23" target="_sD9L1d-fXAz2cn8ZB5m-5">
          <mxGeometry width="50" height="50" relative="1" as="geometry">
            <mxPoint x="620" y="368" as="sourcePoint" />
            <mxPoint x="820" y="450" as="targetPoint" />
          </mxGeometry>
        </mxCell>
        <mxCell id="_sD9L1d-fXAz2cn8ZB5m-54" value="" style="endArrow=none;html=1;rounded=0;entryX=0;entryY=0.3333333333333333;entryDx=0;entryDy=0;entryPerimeter=0;exitX=1;exitY=0.5;exitDx=0;exitDy=0;" edge="1" parent="1" source="_sD9L1d-fXAz2cn8ZB5m-22" target="_sD9L1d-fXAz2cn8ZB5m-5">
          <mxGeometry width="50" height="50" relative="1" as="geometry">
            <mxPoint x="630" y="378" as="sourcePoint" />
            <mxPoint x="850" y="448" as="targetPoint" />
          </mxGeometry>
        </mxCell>
        <mxCell id="_sD9L1d-fXAz2cn8ZB5m-56" value="" style="endArrow=none;html=1;rounded=0;exitX=1;exitY=0.3333333333333333;exitDx=0;exitDy=0;exitPerimeter=0;entryX=0;entryY=0.5;entryDx=0;entryDy=0;" edge="1" parent="1" source="_sD9L1d-fXAz2cn8ZB5m-7" target="_sD9L1d-fXAz2cn8ZB5m-27">
          <mxGeometry width="50" height="50" relative="1" as="geometry">
            <mxPoint x="450" y="600" as="sourcePoint" />
            <mxPoint x="500" y="550" as="targetPoint" />
          </mxGeometry>
        </mxCell>
        <mxCell id="_sD9L1d-fXAz2cn8ZB5m-60" value="" style="endArrow=none;html=1;rounded=0;exitX=0;exitY=0.5;exitDx=0;exitDy=0;entryX=1;entryY=0.3333333333333333;entryDx=0;entryDy=0;entryPerimeter=0;" edge="1" parent="1" source="_sD9L1d-fXAz2cn8ZB5m-26" target="_sD9L1d-fXAz2cn8ZB5m-6">
          <mxGeometry width="50" height="50" relative="1" as="geometry">
            <mxPoint x="620" y="646" as="sourcePoint" />
            <mxPoint x="750" y="649" as="targetPoint" />
          </mxGeometry>
        </mxCell>
        <mxCell id="_sD9L1d-fXAz2cn8ZB5m-63" value="" style="endArrow=block;dashed=1;endFill=0;endSize=12;html=1;rounded=0;exitX=0;exitY=0;exitDx=0;exitDy=0;entryX=0.5;entryY=1;entryDx=0;entryDy=0;" edge="1" parent="1" source="_sD9L1d-fXAz2cn8ZB5m-26" target="_sD9L1d-fXAz2cn8ZB5m-15">
          <mxGeometry width="160" relative="1" as="geometry">
            <mxPoint x="370" y="353" as="sourcePoint" />
            <mxPoint x="510" y="548" as="targetPoint" />
          </mxGeometry>
        </mxCell>
        <mxCell id="_sD9L1d-fXAz2cn8ZB5m-64" value="&amp;lt;&amp;lt;include&amp;gt;&amp;gt;" style="text;html=1;align=center;verticalAlign=middle;whiteSpace=wrap;rounded=0;" vertex="1" parent="1">
          <mxGeometry x="185" y="480" width="60" height="30" as="geometry" />
        </mxCell>
        <mxCell id="_sD9L1d-fXAz2cn8ZB5m-66" value="Admin" style="shape=umlActor;verticalLabelPosition=bottom;verticalAlign=top;html=1;outlineConnect=0;" vertex="1" parent="1">
          <mxGeometry x="40" y="770" width="30" height="60" as="geometry" />
        </mxCell>
        <mxCell id="_sD9L1d-fXAz2cn8ZB5m-69" value="Inserts the new data provided into&lt;div&gt;databse&lt;/div&gt;" style="ellipse;whiteSpace=wrap;html=1;" vertex="1" parent="1">
          <mxGeometry x="510" y="752.5" width="110" height="75" as="geometry" />
        </mxCell>
        <mxCell id="_sD9L1d-fXAz2cn8ZB5m-70" value="" style="endArrow=block;dashed=1;endFill=0;endSize=12;html=1;rounded=0;exitX=1;exitY=0.5;exitDx=0;exitDy=0;entryX=-0.011;entryY=0.542;entryDx=0;entryDy=0;entryPerimeter=0;" edge="1" parent="1" source="_sD9L1d-fXAz2cn8ZB5m-28" target="_sD9L1d-fXAz2cn8ZB5m-69">
          <mxGeometry width="160" relative="1" as="geometry">
            <mxPoint x="610" y="298" as="sourcePoint" />
            <mxPoint x="510" y="298" as="targetPoint" />
          </mxGeometry>
        </mxCell>
        <mxCell id="_sD9L1d-fXAz2cn8ZB5m-71" value="" style="endArrow=none;html=1;rounded=0;exitX=1;exitY=0.3333333333333333;exitDx=0;exitDy=0;exitPerimeter=0;entryX=0;entryY=0.5;entryDx=0;entryDy=0;" edge="1" parent="1" source="_sD9L1d-fXAz2cn8ZB5m-66" target="_sD9L1d-fXAz2cn8ZB5m-28">
          <mxGeometry width="50" height="50" relative="1" as="geometry">
            <mxPoint x="310" y="800" as="sourcePoint" />
            <mxPoint x="360" y="750" as="targetPoint" />
          </mxGeometry>
        </mxCell>
        <mxCell id="_sD9L1d-fXAz2cn8ZB5m-72" value="" style="endArrow=none;html=1;rounded=0;entryX=0;entryY=0.3333333333333333;entryDx=0;entryDy=0;entryPerimeter=0;exitX=1;exitY=0.5;exitDx=0;exitDy=0;" edge="1" parent="1" source="_sD9L1d-fXAz2cn8ZB5m-69" target="_sD9L1d-fXAz2cn8ZB5m-11">
          <mxGeometry width="50" height="50" relative="1" as="geometry">
            <mxPoint x="520" y="800" as="sourcePoint" />
            <mxPoint x="570" y="750" as="targetPoint" />
          </mxGeometry>
        </mxCell>
        <mxCell id="_sD9L1d-fXAz2cn8ZB5m-74" value="" style="endArrow=block;dashed=1;endFill=0;endSize=12;html=1;rounded=0;exitX=1;exitY=0.5;exitDx=0;exitDy=0;entryX=0;entryY=0.5;entryDx=0;entryDy=0;" edge="1" parent="1" source="_sD9L1d-fXAz2cn8ZB5m-14" target="_sD9L1d-fXAz2cn8ZB5m-16">
          <mxGeometry width="160" relative="1" as="geometry">
            <mxPoint x="360" y="343" as="sourcePoint" />
            <mxPoint x="510" y="455" as="targetPoint" />
          </mxGeometry>
        </mxCell>
        <mxCell id="_sD9L1d-fXAz2cn8ZB5m-75" value="&amp;lt;&amp;lt;include&amp;gt;&amp;gt;" style="text;html=1;align=center;verticalAlign=middle;whiteSpace=wrap;rounded=0;" vertex="1" parent="1">
          <mxGeometry x="495" y="270" width="60" height="30" as="geometry" />
        </mxCell>
        <mxCell id="_sD9L1d-fXAz2cn8ZB5m-76" value="" style="endArrow=none;html=1;rounded=0;exitX=1;exitY=0.5;exitDx=0;exitDy=0;entryX=0;entryY=0.3333333333333333;entryDx=0;entryDy=0;entryPerimeter=0;" edge="1" parent="1" source="_sD9L1d-fXAz2cn8ZB5m-25" target="_sD9L1d-fXAz2cn8ZB5m-8">
          <mxGeometry width="50" height="50" relative="1" as="geometry">
            <mxPoint x="660" y="148" as="sourcePoint" />
            <mxPoint x="790" y="200" as="targetPoint" />
          </mxGeometry>
        </mxCell>
        <mxCell id="_sD9L1d-fXAz2cn8ZB5m-81" value="Send successful authentication status and data to the validation server" style="ellipse;whiteSpace=wrap;html=1;" vertex="1" parent="1">
          <mxGeometry x="495" y="570" width="120" height="80" as="geometry" />
        </mxCell>
        <mxCell id="_sD9L1d-fXAz2cn8ZB5m-82" value="" style="endArrow=none;html=1;rounded=0;exitX=1;exitY=0.5;exitDx=0;exitDy=0;entryX=0;entryY=0.3333333333333333;entryDx=0;entryDy=0;entryPerimeter=0;" edge="1" parent="1" source="_sD9L1d-fXAz2cn8ZB5m-81" target="_sD9L1d-fXAz2cn8ZB5m-5">
          <mxGeometry width="50" height="50" relative="1" as="geometry">
            <mxPoint x="460" y="550" as="sourcePoint" />
            <mxPoint x="820" y="430" as="targetPoint" />
          </mxGeometry>
        </mxCell>
        <mxCell id="_sD9L1d-fXAz2cn8ZB5m-83" value="" style="endArrow=block;dashed=1;endFill=0;endSize=12;html=1;rounded=0;exitX=0;exitY=0.5;exitDx=0;exitDy=0;entryX=1;entryY=0.5;entryDx=0;entryDy=0;" edge="1" parent="1" source="_sD9L1d-fXAz2cn8ZB5m-81" target="_sD9L1d-fXAz2cn8ZB5m-27">
          <mxGeometry width="160" relative="1" as="geometry">
            <mxPoint x="350" y="148" as="sourcePoint" />
            <mxPoint x="520" y="148" as="targetPoint" />
          </mxGeometry>
        </mxCell>
        <mxCell id="_sD9L1d-fXAz2cn8ZB5m-84" value="&amp;lt;&amp;lt;include&amp;gt;&amp;gt;" style="text;html=1;align=center;verticalAlign=middle;whiteSpace=wrap;rounded=0;" vertex="1" parent="1">
          <mxGeometry x="380" y="760" width="60" height="30" as="geometry" />
        </mxCell>
        <mxCell id="_sD9L1d-fXAz2cn8ZB5m-85" value="" style="endArrow=block;dashed=1;endFill=0;endSize=12;html=1;rounded=0;exitX=0.5;exitY=1;exitDx=0;exitDy=0;entryX=0.5;entryY=0;entryDx=0;entryDy=0;" edge="1" parent="1" source="_sD9L1d-fXAz2cn8ZB5m-18" target="_sD9L1d-fXAz2cn8ZB5m-26">
          <mxGeometry width="160" relative="1" as="geometry">
            <mxPoint x="296" y="526" as="sourcePoint" />
            <mxPoint x="215" y="465" as="targetPoint" />
          </mxGeometry>
        </mxCell>
        <mxCell id="_sD9L1d-fXAz2cn8ZB5m-86" value="&amp;lt;&amp;lt;include&amp;gt;&amp;gt;" style="text;html=1;align=center;verticalAlign=middle;whiteSpace=wrap;rounded=0;" vertex="1" parent="1">
          <mxGeometry x="310" y="407.5" width="60" height="30" as="geometry" />
        </mxCell>
        <mxCell id="_sD9L1d-fXAz2cn8ZB5m-87" value="&amp;lt;&amp;lt;include&amp;gt;&amp;gt;" style="text;html=1;align=center;verticalAlign=middle;whiteSpace=wrap;rounded=0;" vertex="1" parent="1">
          <mxGeometry x="380" y="605" width="60" height="30" as="geometry" />
        </mxCell>
      </root>
    </mxGraphModel>
  </diagram>
</mxfile>
